#!OML:ASF H:\Terrain\Patient Classification 1\Walking\liu\liu.ASF
:FULLY-SPECIFIED
:DEGREES
356
root 10.196263 18.787121 15.585130 7.249990 9.381592 -2.398297
lowerback -6.847907 -2.392269 -1.042867
upperback -1.609982 -3.192761 3.174435
thorax 2.393237 -1.604086 3.601026
lowerneck -21.469141 -6.617424 -14.655740
upperneck 22.504459 -8.661323 15.519131
head 12.062050 -3.358157 6.792973
rclavicle 0.000000 0.000000
rhumerus -45.821487 13.990460 -93.387032
rradius 43.239681
rwrist -25.024120
rhand -33.625679 -31.122190
rfingers 7.837522
rthumb -4.253403 -64.061356
lclavicle 0.000000 0.000000
lhumerus -41.765572 -23.584002 109.645355
lradius 27.800850
lwrist 7.942616
lhand -11.080190 -21.743589
lfingers 7.837522
lthumb 17.504740 10.559196
rfemur -25.380409 4.634795 29.605179
rtibia 36.050850
rfoot -15.939660 1.453738
rtoes -12.326930
lfemur -18.029770 8.815113 -15.681271
ltibia 70.642990
lfoot -5.046965 12.295139
ltoes -5.389241
357
root 10.192381 18.795591 15.715700 7.177929 9.025731 -2.442000
lowerback -6.750315 -2.204642 -0.978548
upperback -1.448502 -2.948847 3.133625
thorax 2.484482 -1.484307 3.543496
lowerneck -21.819050 -6.682313 -14.616800
upperneck 22.566719 -8.724506 15.501531
head 12.160390 -3.372171 6.769895
rclavicle 0.000000 -0.000000
rhumerus -45.021679 14.817989 -93.526184
rradius 43.550209
rwrist -25.100019
rhand -33.096798 -28.834299
rfingers 7.837522
rthumb -3.742728 -61.782162
lclavicle 0.000000 -0.000000
lhumerus -42.605087 -24.636700 109.988007
lradius 28.410469
lwrist 9.667725
lhand -12.913560 -22.016939
lfingers 7.837522
lthumb 15.738800 10.418825
rfemur -24.664202 5.080229 29.748070
rtibia 35.766609
rfoot -16.319929 1.314852
rtoes -13.498321
lfemur -19.582970 8.666240 -16.007860
ltibia 71.064842
lfoot -6.237759 11.851510
ltoes -4.702027
358
root 10.194514 18.801531 15.854410 7.065344 8.696787 -2.416227
lowerback -6.604532 -1.983476 -0.897334
upperback -1.393711 -2.657567 3.058341
thorax 2.434311 -1.338216 3.447664
lowerneck -21.776150 -6.729778 -14.717450
upperneck 22.635029 -8.773369 15.503949
head 12.189981 -3.403488 6.783095
rclavicle 0.000000 0.000000
rhumerus -44.658680 15.468420 -93.617920
rradius 44.082062
rwrist -25.253359
rhand -33.208450 -29.880510
rfingers 7.837522
rthumb -3.850484 -62.826611
lclavicle 0.000000 0.000000
lhumerus -43.618191 -24.855268 110.075897
lradius 29.108419
lwrist 10.215370
lhand -15.164490 -22.750751
lfingers 7.837522
lthumb 13.569160 9.827015
rfemur -23.897060 5.284884 29.827160
rtibia 35.492271
rfoot -16.602520 1.378762
rtoes -13.680920
lfemur -20.897141 8.439222 -16.532671
ltibia 71.280769
lfoot -7.273728 11.879560
ltoes -5.230764
359
root 10.192292 18.798450 15.982889 7.049185 8.422348 -2.653574
lowerback -6.381034 -1.812261 -0.685432
upperback -1.580073 -2.437765 3.119600
thorax 2.098404 -1.222881 3.418536
lowerneck -21.338789 -6.685855 -14.873650
upperneck 22.649441 -8.753041 15.636390
head 12.121230 -3.408636 6.868037
rclavicle -0.000000 -0.000000
rhumerus -44.559792 15.948350 -93.695465
rradius 44.518867
rwrist -25.177792
rhand -33.598511 -30.798241
rfingers 7.837522
rthumb -4.227168 -63.737850
lclavicle -0.000000 -0.000000
lhumerus -44.707630 -24.376440 109.988007
lradius 29.519600
lwrist 9.964560
lhand -16.116650 -23.394030
lfingers 7.837522
lthumb 12.650880 9.236909
rfemur -23.315599 5.479914 30.213480
rtibia 35.227829
rfoot -16.883129 1.416283
rtoes -13.788280
lfemur -22.439779 8.388941 -16.692390
ltibia 71.392418
lfoot -7.962878 12.023220
ltoes -5.710903
360
root 10.194987 18.802080 16.106310 7.096562 8.191833 -2.768370
lowerback -6.358550 -1.675223 -0.589900
upperback -1.487783 -2.263613 3.163215
thorax 2.168793 -1.136905 3.422584
lowerneck -21.545038 -6.706634 -14.900599
upperneck 22.676720 -8.750280 15.636500
head 12.171940 -3.401486 6.873625
rclavicle 0.000000 -0.000000
rhumerus -43.706520 16.497469 -93.623528
rradius 44.713680
rwrist -25.133461
rhand -33.420311 -28.805370
rfingers 7.837522
rthumb -4.055073 -61.748062
lclavicle 0.000000 -0.000000
lhumerus -45.176670 -24.218809 109.878891
lradius 29.699339
lwrist 10.397344
lhand -16.371300 -23.978790
lfingers 7.837522
lthumb 12.405360 8.665745
rfemur -22.696299 5.684294 30.414671
rtibia 34.993420
rfoot -17.383301 1.615526
rtoes -13.535501
lfemur -24.097151 8.185298 -16.954189
ltibia 71.372292
lfoot -8.607214 11.999130
ltoes -4.624389
361
root 10.205635 18.809780 16.247990 7.113678 8.016833 -2.517702
lowerback -6.577318 -1.526404 -0.724651
upperback -1.124233 -2.064788 3.062422
thorax 2.654795 -1.045383 3.400518
lowerneck -22.422180 -6.806591 -14.620760
upperneck 22.950951 -8.769541 15.145900
head 12.407781 -3.408460 6.637697
rclavicle 0.000000 0.000000
rhumerus -42.531502 17.149660 -93.448410
rradius 45.151150
rwrist -25.388769
rhand -33.083160 -28.114901
rfingers 7.837522
rthumb -3.729495 -61.062981
lclavicle 0.000000 0.000000
lhumerus -45.415920 -24.502390 109.864372
lradius 30.079941
lwrist 11.537790
lhand -16.857389 -24.408560
lfingers 7.837522
lthumb 11.936430 8.261011
rfemur -21.944889 5.673426 30.220079
rtibia 34.763191
rfoot -17.891060 1.847450
rtoes -13.632851
lfemur -25.547390 7.725828 -17.648289
ltibia 71.211472
lfoot -9.406892 12.061060
ltoes -4.105530
362
root 10.207439 18.802299 16.384060 7.220906 7.785305 -2.354847
lowerback -6.465844 -1.500081 -0.877016
upperback -1.530408 -2.008215 2.950926
thorax 2.171521 -1.009896 3.382489
lowerneck -21.537560 -6.534803 -14.189891
upperneck 23.202188 -8.537067 14.701170
head 12.249380 -3.349390 6.443767
rclavicle 0.000000 0.000000
rhumerus -42.945210 17.953979 -93.903366
rradius 45.933357
rwrist -25.596781
rhand -33.206909 -29.059250
rfingers 7.837522
rthumb -3.849032 -62.005348
lclavicle 0.000000 0.000000
lhumerus -47.078568 -23.772320 109.771530
lradius 30.687689
lwrist 12.106820
lhand -16.899849 -24.388649
lfingers 7.837522
lthumb 11.895511 8.283154
rfemur -21.412819 5.825303 30.159580
rtibia 34.570580
rfoot -18.297070 1.734777
rtoes -14.345980
lfemur -27.105539 7.413912 -18.208632
ltibia 71.029861
lfoot -10.309420 12.161160
ltoes -5.379726
363
root 10.209716 18.792070 16.507151 7.301866 7.481364 -2.553221
lowerback -6.257570 -1.335488 -0.605961
upperback -1.742939 -1.797785 2.905925
thorax 1.815033 -0.898808 3.205510
lowerneck -21.377949 -6.554185 -14.133460
upperneck 23.378960 -8.634725 14.749790
head 12.299210 -3.388759 6.444328
rclavicle 0.000000 -0.000000
rhumerus -42.798470 18.311590 -94.090042
rradius 46.510860
rwrist -25.592270
rhand -33.513371 -29.361750
rfingers 7.837522
rthumb -4.144932 -62.302898
lclavicle 0.000000 -0.000000
lhumerus -47.959232 -23.150270 109.262558
lradius 31.012300
lwrist 11.835670
lhand -16.106859 -24.248951
lfingers 7.837522
lthumb 12.660340 8.381473
rfemur -20.875252 6.156557 30.446791
rtibia 34.459370
rfoot -19.005692 1.748230
rtoes -15.646621
lfemur -28.682718 7.341620 -18.353062
ltibia 70.786316
lfoot -11.063140 12.184040
ltoes -6.222436
364
root 10.213126 18.788771 16.639919 7.173298 7.107133 -2.755863
lowerback -6.244139 -1.171357 -0.385850
upperback -1.567104 -1.595781 2.928596
thorax 1.972509 -0.799795 3.118104
lowerneck -21.918930 -6.604092 -13.753630
upperneck 23.750648 -8.658232 14.220470
head 12.502380 -3.407206 6.180449
rclavicle -0.000000 -0.000000
rhumerus -42.048603 18.792290 -94.062210
rradius 46.820621
rwrist -25.511419
rhand -33.489941 -30.259460
rfingers 7.837522
rthumb -4.122371 -63.200829
lclavicle -0.000000 -0.000000
lhumerus -48.233898 -22.572880 108.674171
lradius 31.159040
lwrist 11.527670
lhand -15.419580 -24.342890
lfingers 7.837522
lthumb 13.323091 8.249516
rfemur -20.196110 6.528522 30.749180
rtibia 34.423401
rfoot -19.574829 1.851432
rtoes -16.509571
lfemur -29.918129 7.353951 -18.446119
ltibia 70.366119
lfoot -11.871420 12.107700
ltoes -5.958964
